<?xml version="1.0" standalone="no"?>
<!DOCTYPE svg PUBLIC "-//W3C//DTD SVG 20010904//EN"
 "http://www.w3.org/TR/2001/REC-SVG-20010904/DTD/svg10.dtd">
<svg version="1.0" xmlns="http://www.w3.org/2000/svg"
 width="16.000000pt" height="16.000000pt" viewBox="0 0 16.000000 16.000000"
 preserveAspectRatio="xMidYMid meet">
<metadata>
Created by potrace 1.11, written by Peter Selinger 2001-2013
</metadata>
<g transform="translate(0.000000,16.000000) scale(0.006154,-0.006154)"
fill="#000000" stroke="none">
<path d="M1125 2393 c-32 -8 -84 -51 -102 -86 -16 -30 -18 -103 -18 -1001 -1
-1083 -6 -1014 71 -1072 37 -29 38 -29 205 -32 203 -4 240 6 284 82 l27 46 0
974 0 974 -26 40 c-44 69 -86 82 -267 81 -85 -1 -163 -4 -174 -6z m299 -1093
l0 -925 -125 -3 -126 -3 0 923 c0 508 2 927 4 931 3 4 59 6 126 5 l121 -3 0
-925z"/>
<path d="M422 1717 c-21 -4 -53 -20 -70 -35 -64 -57 -62 -39 -62 -724 0 -600
1 -623 20 -662 11 -23 36 -52 57 -66 36 -24 41 -25 219 -25 l182 0 38 30 c77
63 73 22 73 725 l1 627 -23 44 c-16 29 -38 52 -67 68 -39 22 -55 24 -186 25
-78 1 -160 -3 -182 -7z m261 -166 l27 -1 0 -590 0 -590 -125 0 -125 0 0 589 0
590 23 3 c19 3 63 2 200 -1z"/>
<path d="M1810 1068 c-31 -16 -52 -36 -69 -66 -23 -42 -23 -48 -23 -325 0
-155 1 -298 1 -318 1 -22 13 -53 32 -82 46 -70 79 -79 281 -75 163 3 165 3
201 31 71 54 72 56 73 402 2 331 -1 351 -49 404 -41 44 -75 51 -245 51 -144 0
-162 -2 -202 -22z m327 -423 l0 -275 -123 0 c-111 0 -124 2 -125 18 -1 23 -1
504 0 520 1 9 33 12 125 12 l123 0 0 -275z"/>
</g>
</svg>
